<svg xmlns="http://www.w3.org/2000/svg" viewBox="0 0 640 512" fill="currentColor">
  <!-- Medical Helicopter -->
  <path d="M320 64c0-8.8-7.2-16-16-16H176c-8.8 0-16 7.2-16 16v80H48L26.7 89.6C24 81.1 16 75.2 7.5 74.8S-8 80.6 5.7 93.3l11.5 12.1c6.8 7.2 10.8 16.7 10.8 26.6v48c0 19.3 10.3 37.2 27 46.9L128 256v32c0 53 43 96 96 96h80v48H224c-8.8 0-16 7.2-16 16s7.2 16 16 16H336h16 80c8.8 0 16-7.2 16-16s-7.2-16-16-16H352V384h80c53 0 96-43 96-96V304 256l73.9-36.9c16.7-9.7 27-27.7 27-46.9v-48c0-9.9 4-19.3 10.8-26.6l11.5-12.1c13.7-12.7 6.5-20.3-1.8-18.5s-18.5 6.3-21.2 14.8L592 144H480V64c0-8.8-7.2-16-16-16H336c-8.8 0-16 7.2-16 16v48H320V64zm16 80V80H464v64H336zM160 224h64v64H236.8L177 250.2c-6.8-3.4-14.9-4.2-22.2-2L128 256v-32h32zm304 0h48v32l-29.6 14.8c-6.8 3.4-14.9 4.2-22.2 2L424 265.8V224h40z"/>
</svg>
