<svg xmlns="http://www.w3.org/2000/svg" viewBox="0 0 512 512" fill="currentColor">
  <!-- Stethoscope -->
  <path d="M168 80c0-8.8-7.2-16-16-16s-16 7.2-16 16v96c0 70.7 57.3 128 128 128h16c70.7 0 128-57.3 128-128V80c0-8.8-7.2-16-16-16s-16 7.2-16 16v96c0 53-43 96-96 96h-16c-53 0-96-43-96-96V80zM328 416a40 40 0 1 0 80 0 40 40 0 1 0 -80 0zm-16 0a56 56 0 1 1 112 0 56 56 0 1 1 -112 0z"/>
  <path d="M432 352v-8c0-57.4-46.6-104-104-104h-8c-8.8 0-16-7.2-16-16s7.2-16 16-16h8c75.1 0 136 60.9 136 136v18.7c24.3 11.4 40 35.8 40 63.3 0 39.8-32.2 72-72 72s-72-32.2-72-72c0-27.5 15.7-51.9 40-63.3V352zm-24 48a32 32 0 1 0 64 0 32 32 0 1 0 -64 0z"/>
</svg>
