<svg xmlns="http://www.w3.org/2000/svg" viewBox="0 0 512 512" fill="currentColor">
  <!-- Syringe -->
  <path d="M441 7c-9.4-9.4-24.6-9.4-33.9 0L375 39c-9.4 9.4-9.4 24.6 0 33.9s24.6 9.4 33.9 0l32-32c9.4-9.4 9.4-24.6 0-33.9zM295 55c-9.4-9.4-24.6-9.4-33.9 0L183 133c-9.4 9.4-9.4 24.6 0 33.9s24.6 9.4 33.9 0l78-78c9.4-9.4 9.4-24.6 0-33.9zM215 135c-9.4-9.4-24.6-9.4-33.9 0L103 213c-9.4 9.4-9.4 24.6 0 33.9s24.6 9.4 33.9 0l78-78c9.4-9.4 9.4-24.6 0-33.9z"/>
  <path d="M102.1 259.2l-74 74c-9.4 9.4-9.4 24.6 0 33.9s24.6 9.4 33.9 0l74-74L188 282.1l-18.1-18.1L102.1 259.2zM369.9 283.9L214.1 128.1 128.1 214.1 283.9 369.9c18.7 18.7 49.1 18.7 67.9 0l18.1-18.1c18.7-18.7 18.7-49.1 0-67.9zM320 448c0 8.8 7.2 16 16 16s16-7.2 16-16V352L320 320v128z"/>
</svg>
